<svg xmlns="http://www.w3.org/2000/svg" width="64" height="16" viewBox="0 0 64 16" shape-rendering="crispEdges">
  <rect width="16" height="16" fill="#6f985c"/>
  <path d="M2 4h2v2H2zm9 7h2v2h-2zM6 13h1v1H6z" fill="#87ad6d"/>
  <path d="M8 2h1v2H8zM7 3h3v1H7z" fill="#527b49"/>

  <rect x="16" width="16" height="16" fill="#6f985c"/>
  <path d="M16 6h16v5H16z" fill="#b79a6b"/>
  <path d="M16 7h16v1H16zm0 10h16v1H16z" fill="#c7ad7d"/>
  <path d="M20 3h2v2h-2zm8 10h2v2h-2z" fill="#eadb7e"/>

  <rect x="32" width="16" height="16" fill="#8f6748"/>
  <path d="M32 0h16v3H32zm0 8h16v2H32z" fill="#6f4b37"/>
  <path d="M35 3h2v5h-2zm8 7h2v6h-2z" fill="#b38355"/>
  <path d="M39 11h3v5h-3z" fill="#4e392f"/>

  <rect x="48" width="16" height="16" fill="#4f8190"/>
  <path d="M48 3h8v2h-8zm8 6h8v2h-8zm-8 4h8v2h-8z" fill="#72a5aa"/>
  <path d="M51 0h2v16h-2zm9 0h2v16h-2z" fill="#3d6b78" opacity=".5"/>
</svg>
