<svg xmlns="http://www.w3.org/2000/svg" width="240" height="64" viewBox="0 0 240 64">
<g transform="translate(0 0)"><path d="M10 28 Q24 33 29 48" fill="none" stroke="#644631" stroke-width="2"/><rect x="7" y="36" width="11" height="14" rx="3" fill="#9b704b" stroke="#543b2c" stroke-width="1.5"/></g>
<g transform="translate(48 0)"><path d="M10 28 Q24 33 29 48" fill="none" stroke="#644631" stroke-width="2"/><rect x="7" y="36" width="11" height="14" rx="3" fill="#9b704b" stroke="#543b2c" stroke-width="1.5"/></g>
<g transform="translate(96 0)"><path d="M10 28 Q24 33 29 48" fill="none" stroke="#644631" stroke-width="2"/><rect x="7" y="36" width="11" height="14" rx="3" fill="#9b704b" stroke="#543b2c" stroke-width="1.5"/></g>
<g transform="translate(144 0)"><path d="M10 28 Q24 33 29 48" fill="none" stroke="#644631" stroke-width="2"/><rect x="7" y="36" width="11" height="14" rx="3" fill="#9b704b" stroke="#543b2c" stroke-width="1.5"/></g>
<g transform="translate(192 0)"><path d="M10 28 Q24 33 29 48" fill="none" stroke="#644631" stroke-width="2"/><rect x="7" y="36" width="11" height="14" rx="3" fill="#9b704b" stroke="#543b2c" stroke-width="1.5"/></g>
</svg>
